<svg width="28" height="28" viewBox="0 0 28 28" fill="none" xmlns="http://www.w3.org/2000/svg">
<path d="M13.9996 10C15.0605 10 16.0779 10.4214 16.8281 11.1716C17.5782 11.9217 17.9996 12.9391 17.9996 14C17.9996 15.0609 17.5782 16.0783 16.8281 16.8284C16.0779 17.5786 15.0605 18 13.9996 18C12.9388 18 11.9214 17.5786 11.1712 16.8284C10.4211 16.0783 9.99965 15.0609 9.99965 14C9.99965 12.9391 10.4211 11.9217 11.1712 11.1716C11.9214 10.4214 12.9388 10 13.9996 10V10ZM13.9996 12C13.4692 12 12.9605 12.2107 12.5854 12.5858C12.2104 12.9609 11.9996 13.4696 11.9996 14C11.9996 14.5304 12.2104 15.0391 12.5854 15.4142C12.9605 15.7893 13.4692 16 13.9996 16C14.5301 16 15.0388 15.7893 15.4139 15.4142C15.7889 15.0391 15.9996 14.5304 15.9996 14C15.9996 13.4696 15.7889 12.9609 15.4139 12.5858C15.0388 12.2107 14.5301 12 13.9996 12ZM11.9996 24C11.7496 24 11.5396 23.82 11.4996 23.58L11.1296 20.93C10.4996 20.68 9.95965 20.34 9.43965 19.94L6.94965 20.95C6.72965 21.03 6.45965 20.95 6.33965 20.73L4.33965 17.27C4.27844 17.167 4.25687 17.0452 4.27895 16.9274C4.30104 16.8096 4.36527 16.7039 4.45965 16.63L6.56965 14.97L6.49965 14L6.56965 13L4.45965 11.37C4.36527 11.2961 4.30104 11.1904 4.27895 11.0726C4.25687 10.9548 4.27844 10.833 4.33965 10.73L6.33965 7.27C6.45965 7.05 6.72965 6.96 6.94965 7.05L9.43965 8.05C9.95965 7.66 10.4996 7.32 11.1296 7.07L11.4996 4.42C11.5396 4.18 11.7496 4 11.9996 4H15.9996C16.2496 4 16.4596 4.18 16.4996 4.42L16.8696 7.07C17.4996 7.32 18.0396 7.66 18.5596 8.05L21.0496 7.05C21.2696 6.96 21.5396 7.05 21.6596 7.27L23.6596 10.73C23.7896 10.95 23.7296 11.22 23.5396 11.37L21.4296 13L21.4996 14L21.4296 15L23.5396 16.63C23.7296 16.78 23.7896 17.05 23.6596 17.27L21.6596 20.73C21.5396 20.95 21.2696 21.04 21.0496 20.95L18.5596 19.95C18.0396 20.34 17.4996 20.68 16.8696 20.93L16.4996 23.58C16.4596 23.82 16.2496 24 15.9996 24H11.9996V24ZM13.2496 6L12.8796 8.61C11.6796 8.86 10.6196 9.5 9.84965 10.39L7.43965 9.35L6.68965 10.65L8.79965 12.2C8.39965 13.3667 8.39965 14.6333 8.79965 15.8L6.67965 17.36L7.42965 18.66L9.85965 17.62C10.6296 18.5 11.6796 19.14 12.8696 19.38L13.2396 22H14.7596L15.1296 19.39C16.3196 19.14 17.3696 18.5 18.1396 17.62L20.5696 18.66L21.3196 17.36L19.1996 15.81C19.5996 14.64 19.5996 13.37 19.1996 12.2L21.3096 10.65L20.5596 9.35L18.1496 10.39C17.3639 9.48032 16.298 8.85767 15.1196 8.62L14.7496 6H13.2496V6Z" fill="#8494B2"/>
</svg>
