<svg width="24" height="24" viewBox="0 0 24 24" fill="none" xmlns="http://www.w3.org/2000/svg">
<path d="M2.00017 10.96C1.88407 10.8962 1.78205 10.8096 1.7002 10.7054C1.61835 10.6012 1.55836 10.4816 1.52382 10.3537C1.48927 10.2258 1.48089 10.0922 1.49916 9.96101C1.51743 9.82979 1.56199 9.7036 1.63017 9.59L3.13017 7C3.24017 6.8 3.41017 6.66 3.60017 6.58L11.4302 2.18C11.5902 2.06 11.7902 2 12.0002 2C12.2102 2 12.4102 2.06 12.5702 2.18L20.4702 6.62C20.6602 6.72 20.8202 6.88 20.9102 7.08L22.3602 9.6C22.6402 10.08 22.4702 10.69 22.0002 10.96L21.0002 11.54V16.5C21.0002 16.88 20.7902 17.21 20.4702 17.38L12.5702 21.82C12.4102 21.94 12.2102 22 12.0002 22C11.7902 22 11.5902 21.94 11.4302 21.82L3.53017 17.38C3.36985 17.2958 3.23568 17.1692 3.14224 17.014C3.0488 16.8589 2.99967 16.6811 3.00017 16.5V10.96C2.70017 11.13 2.32017 11.14 2.00017 10.96ZM12.0002 4.15V10.85L17.9602 7.5L12.0002 4.15V4.15ZM5.00017 15.91L11.0002 19.29V12.58L5.00017 9.21V15.91ZM19.0002 15.91V12.69L14.0002 15.59C13.6702 15.77 13.3002 15.76 13.0002 15.6V19.29L19.0002 15.91ZM13.8502 13.36L20.1302 9.73L19.5502 8.72L13.2702 12.35L13.8502 13.36V13.36Z" fill="#B2BED5"/>
</svg>
