<svg width="32" height="32" viewBox="0 0 32 32" fill="none"
    xmlns="http://www.w3.org/2000/svg">
    <path d="M17.4265 13.88C18.2364 12.7483 18.6719 11.3916 18.6719 9.99999C18.6719 8.60837 18.2364 7.25164 17.4265 6.11999C18.1845 5.6026 19.0821 5.32821 19.9998 5.33332C21.2375 5.33332 22.4245 5.82499 23.2997 6.70016C24.1748 7.57533 24.6665 8.76231 24.6665 9.99999C24.6665 11.2377 24.1748 12.4246 23.2997 13.2998C22.4245 14.175 21.2375 14.6667 19.9998 14.6667C19.0821 14.6718 18.1845 14.3974 17.4265 13.88ZM7.33317 9.99999C7.33317 9.07701 7.60687 8.17476 8.11965 7.40733C8.63243 6.6399 9.36126 6.04176 10.214 5.68855C11.0667 5.33534 12.005 5.24293 12.9103 5.42299C13.8155 5.60306 14.647 6.04751 15.2997 6.70016C15.9523 7.3528 16.3968 8.18432 16.5768 9.08957C16.7569 9.99481 16.6645 10.9331 16.3113 11.7858C15.9581 12.6386 15.3599 13.3674 14.5925 13.8802C13.8251 14.393 12.9228 14.6667 11.9998 14.6667C10.7622 14.6667 9.57518 14.175 8.70001 13.2998C7.82484 12.4246 7.33317 11.2377 7.33317 9.99999ZM9.99984 9.99999C9.99984 10.3956 10.1171 10.7822 10.3369 11.1111C10.5567 11.44 10.869 11.6964 11.2345 11.8477C11.5999 11.9991 12.0021 12.0387 12.39 11.9616C12.778 11.8844 13.1343 11.6939 13.4141 11.4142C13.6938 11.1345 13.8842 10.7781 13.9614 10.3902C14.0386 10.0022 13.999 9.60007 13.8476 9.23462C13.6962 8.86917 13.4399 8.55681 13.111 8.33705C12.7821 8.11729 12.3954 7.99999 11.9998 7.99999C11.4694 7.99999 10.9607 8.2107 10.5856 8.58577C10.2106 8.96085 9.99984 9.46956 9.99984 9.99999ZM21.3332 22.6667V25.3333H2.6665V22.6667C2.6665 22.6667 2.6665 17.3333 11.9998 17.3333C21.3332 17.3333 21.3332 22.6667 21.3332 22.6667ZM18.6665 22.6667C18.4798 21.6267 16.8932 20 11.9998 20C7.1065 20 5.4265 21.7467 5.33317 22.6667H18.6665ZM21.2665 17.3333C22.0837 17.969 22.7519 18.7758 23.2241 19.6971C23.6963 20.6185 23.9611 21.6321 23.9998 22.6667V25.3333H29.3332V22.6667C29.3332 22.6667 29.3332 17.8267 21.2532 17.3333H21.2665Z" fill="#B2BED5"/>
</svg>
