<svg width="28" height="28" viewBox="0 0 28 28" fill="none" xmlns="http://www.w3.org/2000/svg">
<path d="M12 14C14.21 14 16 12.21 16 10C16 7.79 14.21 6 12 6C9.79 6 8 7.79 8 10C8 12.21 9.79 14 12 14ZM12 8C12.5304 8 13.0391 8.21071 13.4142 8.58579C13.7893 8.96086 14 9.46957 14 10C14 10.5304 13.7893 11.0391 13.4142 11.4142C13.0391 11.7893 12.5304 12 12 12C10.89 12 10 11.11 10 10C10 8.89 10.9 8 12 8ZM14 22H4V19C4 16.33 9.33 15 12 15C13 15 14.38 15.19 15.71 15.56C15.41 16.12 15.23 16.74 15.21 17.39C14.23 17.1 13.11 16.9 12 16.9C9.03 16.9 5.9 18.36 5.9 19V20.1H14V22ZM22.8 19V17.5C22.8 16.1 21.4 15 20 15C18.6 15 17.2 16.1 17.2 17.5V19C16.6 19 16 19.6 16 20.2V23.7C16 24.4 16.6 25 17.2 25H22.7C23.4 25 24 24.4 24 23.8V20.3C24 19.6 23.4 19 22.8 19ZM21.5 19H18.5V17.5C18.5 16.7 19.2 16.2 20 16.2C20.8 16.2 21.5 16.7 21.5 17.5V19Z" fill="#8494B2"/>
</svg>
