<svg width="34" height="34" viewBox="0 0 34 34" fill="none"
    xmlns="http://www.w3.org/2000/svg">
    <path d="M20.0301 33.0956L20.0298 33.0956C19.5885 33.0613 19.1859 32.8357 18.9248 32.479L18.9247 32.4788L17.3141 30.2695L17.314 30.2694C17.289 30.2351 17.2541 30.2008 17.2142 30.1711C17.2141 30.171 17.214 30.171 17.214 30.1709L14.8517 28.4312L14.8515 28.4311C14.4948 28.1671 14.2722 27.7633 14.238 27.3225L14.238 27.3221C14.2051 26.8813 14.3649 26.4488 14.6789 26.1361C15.1403 25.672 15.827 25.5441 16.4271 25.8072L18.0952 26.536L21.634 22.722L21.6604 22.6551L15.3749 19.3287L15.37 19.3261L15.37 19.326C14.9223 19.0562 14.6463 18.6337 14.5877 18.1483C14.5281 17.6646 14.6919 17.1875 15.0375 16.8418C15.3794 16.4985 15.8714 16.3584 16.3423 16.4586L20.0301 33.0956ZM20.0301 33.0956C20.0687 33.0985 20.1099 33.0999 20.1482 33.0999C20.5493 33.0999 20.9332 32.9414 21.2198 32.6576L21.2202 32.6573C21.6813 32.1961 21.8108 31.5109 21.5491 30.9106L21.5491 30.9106L20.8201 29.2396L24.6401 25.6894L24.6694 25.6622L24.6959 25.6819L28.1919 32.1461L28.1918 32.1462L28.1946 32.1507C28.448 32.565 28.871 32.8341 29.353 32.8911C29.8447 32.9537 30.3124 32.7835 30.6547 32.4398L30.6548 32.4396C31.0027 32.0889 31.1451 31.5912 31.0319 31.1133C31.0319 31.1131 31.0318 31.113 31.0318 31.1128L28.9254 21.8447L28.9254 21.8447L28.9251 21.8433C28.9221 21.8311 28.9249 21.8155 28.9401 21.8013L28.9405 21.801L32.439 18.5025C32.8537 18.1119 33.0888 17.4679 33.0997 16.7446V16.7445C33.1107 15.9943 32.8763 15.2942 32.4585 14.8764L32.4584 14.8763C32.0418 14.4611 31.3793 14.1944 30.5884 14.2365C29.8659 14.2478 29.224 14.4815 28.8338 14.8959L28.8337 14.8959L25.5485 18.3865L25.5485 18.3864L25.5469 18.3882C25.539 18.3971 25.5252 18.4037 25.5033 18.3988L25.502 18.3985L16.3424 16.4586L20.0301 33.0956ZM22.3909 21.3025L16.1018 17.9743L16.1028 17.9718L25.1786 19.894C25.1787 19.894 25.1788 19.894 25.1789 19.894C25.7182 20.012 26.29 19.8373 26.6676 19.4326C26.6677 19.4326 26.6677 19.4326 26.6677 19.4325L29.9512 15.9451C29.9802 15.9144 30.0515 15.8699 30.1698 15.8326C30.2849 15.7963 30.4355 15.7696 30.6133 15.7671V15.7671L30.6163 15.767C30.8001 15.7588 30.9683 15.784 31.1029 15.8241C31.2403 15.865 31.3331 15.9184 31.3746 15.9593C31.4144 15.9993 31.465 16.0895 31.5047 16.2273C31.5436 16.362 31.569 16.5318 31.5665 16.7204C31.5639 16.8987 31.537 17.0499 31.5004 17.1656C31.463 17.2841 31.4186 17.3559 31.3882 17.3853C31.3881 17.3853 31.388 17.3854 31.3879 17.3855L27.8931 20.6791C27.893 20.6792 27.8929 20.6792 27.8928 20.6793C27.4791 21.0648 27.3023 21.6465 27.4332 22.191C27.4333 22.1912 27.4333 22.1914 27.4334 22.1916L29.5253 31.3725L29.5097 31.3618L26.0146 24.8992L26.0147 24.8991L26.0118 24.8943C25.7628 24.4903 25.3514 24.2226 24.8819 24.1584C24.8099 24.1484 24.7373 24.1441 24.6667 24.1441C24.2722 24.1441 23.8908 24.2923 23.5964 24.5625L23.596 24.5629L19.3788 28.4828C19.1408 28.7038 19.069 29.0519 19.1992 29.3506L19.1992 29.3506L20.1407 31.5098C20.1399 31.5102 20.1392 31.5106 20.1383 31.511C20.1348 31.5127 20.1307 31.5145 20.1259 31.5163L18.553 29.3597L18.5529 29.3595C18.4338 29.197 18.291 29.0542 18.1289 28.9339L16.0872 27.3277L17.9799 28.1542C17.98 28.1542 17.9801 28.1543 17.9802 28.1543C18.2796 28.2862 18.6262 28.2122 18.8481 27.9734L18.8482 27.9734L22.7707 23.7469L22.7709 23.7467C23.0938 23.3967 23.242 22.9254 23.1751 22.4529L23.175 22.4525C23.1066 21.9806 22.8352 21.5695 22.3956 21.3052L22.3957 21.3051L22.3909 21.3025Z" fill="#8494B2" stroke="#8494B2" stroke-width="0.2"/>
    <path d="M13.6562 14.6768L13.6564 14.6772C13.7912 14.9454 14.0612 15.1002 14.3417 15.1002C14.4565 15.1002 14.5747 15.0742 14.6839 15.0189C14.684 15.0188 14.6841 15.0188 14.6842 15.0187L26.2333 9.24092V13.6669C26.2333 14.0901 26.5767 14.4336 26.9999 14.4336C27.4232 14.4336 27.7666 14.0901 27.7666 13.6669V8.00044C27.7666 7.73515 27.6287 7.48844 27.4021 7.3489C27.1776 7.20763 26.8925 7.1956 26.6563 7.31515C26.6562 7.31518 26.6562 7.31522 26.6561 7.31525L13.9984 13.6481C13.6191 13.837 13.4679 14.2986 13.6562 14.6768L13.6562 14.6768Z" fill="#8494B2" stroke="#8494B2" stroke-width="0.2"/>
    <path d="M2.43378 9.24106L13.982 15.0204L13.982 15.0205C14.3593 15.2091 14.8207 15.0573 15.0108 14.6771L15.0109 14.6769C15.1995 14.2982 15.0461 13.8384 14.6676 13.6483L14.6675 13.6483L2.0092 7.31515L2.00895 7.31502C1.77156 7.1971 1.48949 7.2092 1.26384 7.34889C1.0385 7.48838 0.900488 7.73516 0.900488 8.00056V20.3335C0.900488 20.6126 1.0523 20.8686 1.29449 21.0035L1.29456 21.0036L12.0874 27.0033C12.2056 27.0693 12.3331 27.1 12.4601 27.1C12.7286 27.1 12.9891 26.9573 13.13 26.7062L13.1303 26.7057C13.3356 26.3349 13.2024 25.8688 12.8327 25.6633L12.7841 25.7507L12.8327 25.6633L2.43378 19.8827V9.24106Z" fill="#8494B2" stroke="#8494B2" stroke-width="0.2"/>
    <path d="M26.6573 8.68675L26.6577 8.68698C26.7688 8.74175 26.8853 8.76795 27.0006 8.76795C27.2811 8.76795 27.5511 8.61313 27.686 8.34489L27.6861 8.34454C27.8747 7.96584 27.7213 7.50598 27.3428 7.31596L27.3426 7.31587L14.6684 0.982752C14.4535 0.875296 14.1991 0.875438 13.9832 0.982625L13.983 0.982764L1.32486 7.31581C0.945515 7.50472 0.794277 7.96637 0.982598 8.34454L0.982743 8.34483C1.17305 8.72392 1.63587 8.87377 2.01133 8.68681L2.0115 8.68672L14.3264 2.52529L26.6573 8.68675Z" fill="#8494B2" stroke="#8494B2" stroke-width="0.2"/>
    <path d="M7.38037 10.3432L7.38018 10.3433C7.12123 10.4736 6.95713 10.7387 6.95713 11.0287V15.9858C6.95713 16.4091 7.30056 16.7525 7.72377 16.7525C8.14673 16.7525 8.49042 16.4106 8.49042 15.9872V11.5038L20.7241 5.38227L20.7242 5.38221C21.1027 5.19219 21.2561 4.73233 21.0675 4.35363L21.0674 4.35334C20.8773 3.97459 20.4132 3.82283 20.0387 4.0101L20.0386 4.01011L7.38037 10.3432Z" fill="#8494B2" stroke="#8494B2" stroke-width="0.2"/>
</svg>
