<svg width="24" height="24" viewBox="0 0 24 24" fill="none" xmlns="http://www.w3.org/2000/svg">
<path d="M19 3C19.5304 3 20.0391 3.21071 20.4142 3.58579C20.7893 3.96086 21 4.46957 21 5V12C21 12.5304 20.7893 13.0391 20.4142 13.4142C20.0391 13.7893 19.5304 14 19 14H5C4.46957 14 3.96086 13.7893 3.58579 13.4142C3.21071 13.0391 3 12.5304 3 12V5C3 4.46957 3.21071 3.96086 3.58579 3.58579C3.96086 3.21071 4.46957 3 5 3H19ZM5 10V12H9.4C8.8 11.47 8.34 10.78 8.13 10H5ZM19 12V10H15.87C15.66 10.78 15.2 11.47 14.6 12H19ZM19 8V5H5V8H10V9C10 10.07 10.93 11 12 11C13.07 11 14 10.07 14 9V8H19ZM21 19C21 19.5304 20.7893 20.0391 20.4142 20.4142C20.0391 20.7893 19.5304 21 19 21H5C4.46957 21 3.96086 20.7893 3.58579 20.4142C3.21071 20.0391 3 19.5304 3 19V15H10V16C10 17.07 10.93 18 12 18C13.07 18 14 17.07 14 16V15H21V19ZM5 17V19H9.4C8.8 18.47 8.34 17.78 8.13 17H5ZM19 19V17H15.87C15.66 17.78 15.2 18.47 14.6 19H19Z" fill="#B2BED5"/>
</svg>
